<?xml version="1.0" encoding="UTF-8"?>
<svg width="24px" height="24px" viewBox="0 0 24 24" stroke-width="1.5" fill="none" xmlns="http://www.w3.org/2000/svg" color="#ffffff">
  <path d="M12 15a3 3 0 100-6 3 3 0 000 6z" stroke="#ffffff" stroke-width="1.5" stroke-linecap="round" stroke-linejoin="round"></path>
  <path d="M19.622 10.395l-1.097-2.65L20 6l-2-2-1.735 1.483-2.707-1.113L12.935 2h-1.954l-.632 2.401-2.645 1.115L6 4 4 6l1.453 1.789-1.08 2.657L2 11v2l2.401.655L5.516 16.3 4 18l2 2 1.791-1.46 2.606 1.072L11 22h2l.604-2.387 2.651-1.098C16.255 18.515 18 18 18 18l2-2-1.482-1.708 1.092-2.659L22 11V9l-2.378-.605z" stroke="#ffffff" stroke-width="1.5" stroke-linecap="round" stroke-linejoin="round"></path>
</svg>
